<svg width="512" height="256" viewBox="0 0 512 256" xmlns="http://www.w3.org/2000/svg">
  <defs>
    <linearGradient id="g" x1="0" y1="0" x2="0" y2="1">
      <stop offset="0%" stop-color="#ffffff"/>
      <stop offset="100%" stop-color="#e6e6e6"/>
    </linearGradient>
  </defs>
  <!-- knife body -->
  <rect x="40" y="110" rx="18" ry="18" width="432" height="36" fill="url(#g)" stroke="#999" stroke-width="2"/>
  <!-- blade -->
  <path d="M 240 110 L 320 40 L 356 40 L 300 110 Z" fill="#cfcfcf" stroke="#999" stroke-width="2"/>
  <!-- Chile flag emblem -->
  <rect x="64" y="120" width="64" height="26" fill="#0039a6"/>
  <polygon points="64,120 128,120 128,133 64,133" fill="#ffffff"/>
  <polygon points="64,133 128,133 128,146 64,146" fill="#d52b1e"/>
  <!-- star -->
  <polygon points="84,126 86,132 92,132 87,135 89,141 84,137 79,141 81,135 76,132 82,132"
           fill="#ffffff"/>
  <!-- text -->
  <text x="180" y="138" font-family="Arial, Helvetica, sans-serif" font-size="26" fill="#333">Navaja Chilena</text>
</svg>
